{"title":"Rush 2013 HDRip x264 AC3 TiTAN","uid":9354872,"size":1608626865,"categoryP":"video","categoryS":"movies","magnet":"?xt=urn:btih:12722c461764ae5e847a99750c3a445c5a734b59&amp;dn=Rush+2013+HDRip+x264+AC3+TiTAN&amp;tr=udp%3A%2F%2Ftracker.openbittorrent.com%3A80&amp;tr=udp%3A%2F%2Fopen.demonii.com%3A1337&amp;tr=udp%3A%2F%2Ftracker.coppersurfer.tk%3A6969&amp;tr=udp%3A%2F%2Fexodus.desync.com%3A6969","seeders":12,"leechers":4,"uploader":"TeX","files":1,"time":1387202930,"description":"[IMG]http://i.imgur.com/PFR55Ud.jpg[/IMG]\n &lt;a href=&quot;\nhttp://www.imdb.com/title/tt1979320/&quot; rel=&quot;nofollow&quot; target=&quot;_NEW&quot;&gt;\nhttp://www.imdb.com/title/tt1979320/&lt;/a&gt;\n\nSource: KingStoner (THX)\n\nGeneral\n\nNote: Got a descent webrip with arab subs.  Source is pretty blocky and blurry at times. so i just cropped resized ran some smoother and some sharpener. \noverall very watchable with studio audio, enjoy or wait for better. \n\nFormat                                   : Matroska\nFormat version                           : Version 2\nFile size                                : 1.50 GiB\nDuration                                 : 1h 58mn\nOverall bit rate mode                    : Variable\nOverall bit rate                         : 1 812 Kbps\nEncoded date                             : UTC 2013-12-15 16:27:55\nWriting application                      : mkvmerge v6.5.0 ('Isn't she lovely') built on Oct 20 2013 12:50:05\nWriting library                          : libebml v1.3.0 + libmatroska v1.4.1\n\nVideo\nID                                       : 1\nFormat                                   : AVC\nFormat/Info                              : Advanced Video Codec\nFormat profile                           : &lt;a class=&quot;__cf_email__&quot; href=&quot;/cdn-cgi/l/email-protection&quot; data-cfemail=&quot;aee6c7c9c6eee29a809f&quot;&gt;[email&amp;#160;protected]&lt;/a&gt;&lt;script data-cfhash='f9e31' type=&quot;text/javascript&quot;&gt;\n/* &lt;![CDATA[ */!function(){try{var t=&quot;currentScript&quot;in document?document.currentScript:function(){for(var t=document.getElementsByTagName(&quot;script&quot;),e=t.length;e--;)if(t[e].getAttribute(&quot;data-cfhash&quot;))return t[e]}();if(t&amp;&amp;t.previousSibling){var e,r,n,i,c=t.previousSibling,a=c.getAttribute(&quot;data-cfemail&quot;);if(a){for(e=&quot;&quot;,r=parseInt(a.substr(0,2),16),n=2;a.length-n;n+=2)i=parseInt(a.substr(n,2),16)^r,e+=String.fromCharCode(i);e=document.createTextNode(e),c.parentNode.replaceChild(e,c)}t.parentNode.removeChild(t);}}catch(u){}}()/* ]]&gt; */&lt;/script&gt;\nFormat settings, CABAC                   : Yes\nFormat settings, ReFrames                : 3 frames\nCodec ID                                 : V_MPEG4/ISO/AVC\nDuration                                 : 1h 58mn\nBit rate mode                            : Variable\nBit rate                                 : 1 618 Kbps\nMaximum bit rate                         : 40.0 Mbps\nWidth                                    : 720 pixels\nHeight                                   : 384 pixels\nDisplay aspect ratio                     : 1.85:1\nFrame rate                               : 23.976 fps\nColor space                              : YUV\nChroma subsampling                       : 4:2:0\nBit depth                                : 8 bits\nScan type                                : Progressive\nBits/(Pixel*Frame)                       : 0.244\nStream size                              : 1.31 GiB (87%)\nWriting library                          : x264 core 140 r2377 1ca7bb9\nDefault                                  : Yes\nForced                                   : No\nColor primaries                          : BT.709-5, BT.1361, IEC 61966-2-4, SMPTE RP177\nTransfer characteristics                 : BT.709-5, BT.1361\nMatrix coefficients                      : BT.709-5, BT.1361, IEC 61966-2-4 709, SMPTE RP177\n\nAudio\nID                                       : 2\nFormat                                   : AC-3\nFormat/Info                              : Audio Coding 3\nMode extension                           : CM (complete main)\nFormat settings, Endianness              : Big\nCodec ID                                 : A_AC3\nDuration                                 : 1h 58mn\nBit rate mode                            : Constant\nBit rate                                 : 192 Kbps\nChannel(s)                               : 2 channels\nChannel positions                        : Front: L R\nSampling rate                            : 44.1 KHz\nBit depth                                : 16 bits\nCompression mode                         : Lossy\nStream size                              : 163 MiB (11%)\nDefault                                  : Yes\nForced                                   : No\n\n[IMG]http://i.imgur.com/KMGURA0.png[/IMG]\n[IMG]http://i.imgur.com/OMxIwUB.png[/IMG]\n[IMG]http://i.imgur.com/ZLxnB9V.png[/IMG]\n[IMG]http://i.imgur.com/EYfV46M.png[/IMG]","torrent":{"xt":"urn:btih:12722c461764ae5e847a99750c3a445c5a734b59","amp;dn":"Rush+2013+HDRip+x264+AC3+TiTAN","amp;tr":["udp%3A%2F%2Ftracker.openbittorrent.com%3A80","udp%3A%2F%2Fopen.demonii.com%3A1337","udp%3A%2F%2Ftracker.coppersurfer.tk%3A6969","udp%3A%2F%2Fexodus.desync.com%3A6969"],"infoHash":"12722c461764ae5e847a99750c3a445c5a734b59","infoHashBuffer":{"type":"Buffer","data":[18,114,44,70,23,100,174,94,132,122,153,117,12,58,68,92,90,115,75,89]},"announce":[],"urlList":[]}}